PathFileType	3	(X/Y/Z)	F:\ViconData\AntennenMessung\Messung1\Session1\ID05.trc
DataRate	CameraRate	NumFrames	NumMarkers	Units	OrigDataRate	OrigDataStartFrame	OrigNumFrames
120.0	120.0	6	70	mm	120.0	831	1328	
Frame#	Time	Ashort			Along			Atop			A4			Bshort			Blong			Btop			B4			Cshort			Clong			Ctop			C4			Dshort			Dlong			Dtop			D4			Eshort			Elong			Etop			E4			Fshort			Flong			Ftop			F4			Gshort			Glong			Gtop			G4			Hshort			Hlong			Htop			H4			I1			I2			I3			I4			I5			WandAshort			WandAlong			WandAtop			WandA4			WandA15			WandBshort			WandB4			WandB5			WandBtop			WandBlong			WandCshort			WandClong			WandCtop			WandC4			WandC5			Acenter			Aantenna			Bcenter			Bantenna			Ccenter			Cantenna			Dcenter			Dantenna			Ecenter			Eantenna			Fcenter			Fantenna			Gcenter			Gantenna			Hcenter			Hantenna			Icenter			Iantenna			
		X1	Y1	Z1	X2	Y2	Z2	X3	Y3	Z3	X4	Y4	Z4	X5	Y5	Z5	X6	Y6	Z6	X7	Y7	Z7	X8	Y8	Z8	X9	Y9	Z9	X10	Y10	Z10	X11	Y11	Z11	X12	Y12	Z12	X13	Y13	Z13	X14	Y14	Z14	X15	Y15	Z15	X16	Y16	Z16	X17	Y17	Z17	X18	Y18	Z18	X19	Y19	Z19	X20	Y20	Z20	X21	Y21	Z21	X22	Y22	Z22	X23	Y23	Z23	X24	Y24	Z24	X25	Y25	Z25	X26	Y26	Z26	X27	Y27	Z27	X28	Y28	Z28	X29	Y29	Z29	X30	Y30	Z30	X31	Y31	Z31	X32	Y32	Z32	X33	Y33	Z33	X34	Y34	Z34	X35	Y35	Z35	X36	Y36	Z36	X37	Y37	Z37	X38	Y38	Z38	X39	Y39	Z39	X40	Y40	Z40	X41	Y41	Z41	X42	Y42	Z42	X43	Y43	Z43	X44	Y44	Z44	X45	Y45	Z45	X46	Y46	Z46	X47	Y47	Z47	X48	Y48	Z48	X49	Y49	Z49	X50	Y50	Z50	X51	Y51	Z51	X52	Y52	Z52	X53	Y53	Z53	X54	Y54	Z54	X55	Y55	Z55	X56	Y56	Z56	X57	Y57	Z57	X58	Y58	Z58	X59	Y59	Z59	X60	Y60	Z60	X61	Y61	Z61	X62	Y62	Z62	X63	Y63	Z63	X64	Y64	Z64	X65	Y65	Z65	X66	Y66	Z66	X67	Y67	Z67	X68	Y68	Z68	X69	Y69	Z69	X70	Y70	Z70	
831	6.9166667	-1038.2487	214.40688	-1644.2205	-1109.2028	203.25047	-1599.6199	-1063.526	172.71591	-1625.5558	-1054.0046	262.02701	-1635.0065	-1352.9314	234.9427	1003.8629	-1281.2903	227.01874	1052.3979	-1322.9641	194.1438	1020.7928	-1284.5387	287.87674	1052.7274	813.86493	187.67282	1209.6461	892.49939	178.36055	1179.3281	844.56561	145.23122	1198.2822	860.37378	292.40906	1167.4551	1115.7327	209.43816	-1401.5988	1056.2372	194.03871	-1460.2417	1095.0481	162.2346	-1423.8896	1070.0107	238.72424	-1425.8754	-1204.4485	1685.9392	-1563.3392	-1129.1011	1688.2786	-1606.3214	-1173.1255	1724.3992	-1581.9904	-1133.6432	1580.9753	-1603.5359	-1239.6787	1699.2306	1119.3328	-1309.3646	1698.7538	1071.7822	-1270.3027	1736.1416	1096.7026	-1244.7437	1593.7576	1106.5612	988.86658	1664.2568	1162.4218	955.85242	1702.1941	1181.224	922.24127	1662.2083	1214.9508	939.84674	1659.342	1160.0109	999.2099	1668.5557	-1579.5448	1058.8888	1670.1448	-1518.6642	1025.0779	1708.0011	-1551.1609	1059.314	1672.2109	-1585.6665	-187.89268	1141.6183	506.35947	-185.50319	1144.1709	427.45163	-186.96292	1179.6603	475.24063	-224.60107	1141.7496	473.44711	-139.24127	1144.0693	475.05356																																														-1068.9316	209.58244	-1624.9335	-1074.5887	248.16447	-1624.2823	-1321.6987	231.48817	1025.0221	-1320.3865	270.21851	1029.4084	848.36133	183.5876	1196.3457	852.19708	222.34912	1194.3888	1088.8143	202.47079	-1428.1312	1082.8757	240.80357	-1432.1722	-1171.9114	1686.9492	-1581.9	-1170.6475	1647.9698	-1581.8062	-1270.9366	1699.0167	1098.0038	-1271.6021	1660.0463	1099.3696	953.25458	1705.1791	1182.7034	972.75226	1732.1945	1162.4299	1026.5803	1669.2844	-1551.623	1028.0927	1630.3165	-1552.0884	-186.91412	1142.6635	474.04526	-186.86275	1103.6838	472.78586
832	6.925	-1038.2457	214.46944	-1644.2601	-1109.1936	203.19669	-1599.6261	-1063.6001	173.13248	-1625.6887	-1053.9989	262.02075	-1635.0013	-1353.1102	234.85068	1003.9677	-1281.3193	227.024	1052.3938	-1323.0835	194.06569	1020.8534	-1284.6633	287.85056	1052.7944	813.99982	187.74559	1209.7195	892.45239	178.24454	1179.349	844.60712	145.14603	1198.4005	860.5014	292.31683	1167.4799	1115.7434	209.43715	-1401.5884	1056.2013	194.06261	-1460.2888	1095.0134	162.17763	-1423.8943	1069.8853	238.54446	-1425.9301	-1204.4595	1685.9282	-1563.3368	-1129.0933	1688.2677	-1606.325	-1173.1245	1724.4031	-1581.9922	-1133.6552	1581.0129	-1603.5942	-1239.6841	1699.2472	1119.3407	-1309.3634	1698.7736	1071.7944	-1270.2948	1736.134	1096.6876	-1244.7555	1593.6807	1106.6259	988.88385	1664.2802	1162.4264	955.88049	1702.4209	1181.187	922.7522	1662.1892	1215.0553	939.81024	1659.3037	1160.072	999.19696	1668.5858	-1579.5544	1058.8785	1670.121	-1518.6681	1025.0778	1708.0153	-1551.1589	1059.3016	1672.1986	-1585.6729	-187.88179	1141.6182	506.3544	-185.49539	1144.177	427.44656	-186.97011	1179.6561	475.26303	-224.21666	1141.4048	473.42725	-139.26038	1144.0752	475.0553																																														-1068.9318	209.59378	-1624.9551	-1074.5736	248.1757	-1624.1788	-1321.8446	231.44208	1025.0575	-1320.5607	270.17667	1029.4146	848.47571	183.57036	1196.3732	852.37714	222.32083	1194.3287	1088.8015	202.48042	-1428.1492	1082.8928	240.81712	-1432.1969	-1171.9104	1686.9385	-1581.9023	-1170.6471	1647.959	-1581.8091	-1270.9446	1699.0347	1098.0098	-1271.6272	1660.0654	1099.3983	953.66638	1704.9795	1182.4456	973.09705	1731.8749	1161.9492	1026.5618	1669.2896	-1551.6372	1028.0551	1630.3212	-1552.1184	-186.90527	1142.6652	474.06543	-186.83696	1103.6857	472.80344
833	6.9333333	-1038.2402	214.40257	-1644.2378	-1109.1982	203.28842	-1599.6202	-1063.6565	172.66779	-1625.5172	-1053.999	261.99783	-1634.9855	-1353.0774	234.97713	1003.9617	-1281.2693	226.9989	1052.4012	-1323.0518	194.05264	1020.847	-1284.7325	287.79117	1052.8691	813.92224	187.75356	1209.7079	892.91229	178.88094	1178.9275	844.60126	145.06786	1198.4121	860.94965	291.99844	1168.9869	1115.7947	209.7198	-1401.7369	1056.1963	194.0083	-1460.2335	1095.0332	162.20473	-1423.8373	1069.9904	238.68985	-1425.8816	-1204.4584	1685.9408	-1563.3531	-1129.1056	1688.2251	-1606.1021	-1173.1224	1724.3822	-1581.9995	-1133.6193	1580.9951	-1603.5551	-1239.6985	1699.2695	1119.3489	-1309.4764	1699.0067	1071.8821	-1270.3064	1736.1414	1096.704	-1244.6112	1594.312	1106.8494	988.8761	1664.2622	1162.426	955.84235	1702.245	1181.2379	922.69647	1662.0281	1214.9836	939.84314	1659.3297	1160.0466	999.21844	1668.5276	-1579.4949	1058.9025	1670.1453	-1518.6699	1025.0742	1708.0096	-1551.1573	1059.2969	1672.1941	-1585.6746	-187.87907	1141.6255	506.37497	-185.50978	1144.1699	427.45294	-186.97043	1179.6741	475.26376	-224.22211	1141.4141	473.4093	-139.2682	1144.0638	475.04984																																														-1069.0339	209.57932	-1624.8749	-1074.6555	248.16618	-1624.2035	-1321.7544	231.49699	1025.0911	-1320.4127	270.22592	1029.4808	848.16589	183.9071	1196.3639	851.72528	222.69044	1194.3188	1088.7493	202.59004	-1428.2822	1082.7885	240.90047	-1432.4988	-1171.8904	1686.928	-1581.8295	-1170.6083	1647.9495	-1581.6525	-1271.0592	1699.1512	1098.0155	-1271.8524	1660.1838	1099.3973	953.52924	1704.9044	1182.5551	972.93256	1731.8868	1162.1477	1026.5829	1669.2692	-1551.6073	1028.1003	1630.3014	-1552.0601	-186.90932	1142.667	474.07248	-186.84497	1103.6871	472.81772
834	6.9416667	-1038.2494	214.45686	-1644.2588	-1109.3369	203.45799	-1599.5654	-1063.5853	173.09648	-1625.6897	-1054.0135	262.02588	-1635.0018	-1352.9888	234.93001	1003.8541	-1281.3252	227.03976	1052.3475	-1323.0541	194.00063	1020.873	-1284.6982	287.77219	1052.8429	813.93042	187.63046	1209.6219	892.89423	178.90182	1178.868	844.59717	145.17506	1198.3361	860.87933	291.98953	1169.1284	1115.738	209.45522	-1401.6055	1056.229	194.04037	-1460.2313	1095.1045	162.31975	-1423.9171	1069.8995	238.56764	-1425.9568	-1204.4584	1685.9342	-1563.3549	-1129.0892	1688.2778	-1606.3303	-1173.1586	1724.3154	-1581.9032	-1133.5914	1580.9867	-1603.5173	-1239.6936	1699.2565	1119.3433	-1309.4634	1698.9851	1071.8734	-1270.316	1736.1628	1096.7122	-1244.6324	1593.7915	1106.4078	988.88013	1664.2661	1162.4225	955.73071	1702.1824	1181.1635	922.70081	1662.1353	1215.0242	939.83307	1659.3081	1160.0571	999.19507	1668.575	-1579.5636	1058.8958	1670.146	-1518.6587	1025.0737	1708.0122	-1551.1654	1059.2992	1672.2018	-1585.6868	-187.86758	1141.6301	506.44196	-185.50586	1144.1685	427.46661	-186.96104	1179.6499	475.26804	-224.35472	1141.5271	473.39636	-139.25145	1144.0648	475.06464																																														-1068.8364	209.7243	-1625.0282	-1074.3704	248.32341	-1624.3312	-1321.7255	231.48788	1025.0093	-1320.3525	270.22861	1029.2838	848.08722	183.85475	1196.3188	851.58716	222.64468	1194.2961	1088.8324	202.48573	-1428.1118	1082.8472	240.81529	-1432.1146	-1171.9797	1686.944	-1581.874	-1170.7502	1647.9634	-1581.8436	-1271.053	1699.1344	1098.007	-1271.8286	1660.1659	1099.3699	953.30798	1704.9535	1182.5331	972.60645	1731.9514	1162.0468	1026.5715	1669.2952	-1551.6349	1028.079	1630.3273	-1552.1073	-186.89984	1142.6703	474.08127	-186.83534	1103.6904	472.83035
835	6.95	-1038.2435	214.45911	-1644.2388	-1109.2166	203.28574	-1599.6674	-1063.5974	172.58295	-1625.5798	-1054.0096	262.03293	-1635.0189	-1353.0757	234.98796	1003.9008	-1281.2889	227.03758	1052.3717	-1323.0127	194.07152	1020.8661	-1284.5948	287.85526	1052.7141	813.91443	187.69218	1209.6282	892.87207	178.86121	1178.9117	844.60864	145.20287	1198.3739	860.47638	292.44965	1167.343	1115.7391	209.43925	-1401.5991	1056.2094	194.06972	-1460.286	1094.9744	162.20264	-1423.894	1069.8795	238.59641	-1425.9906	-1204.4556	1685.9279	-1563.34	-1129.0955	1688.2887	-1606.3325	-1173.1234	1724.3853	-1581.985	-1133.5726	1581.0233	-1603.5417	-1239.6959	1699.2677	1119.3483	-1309.4731	1698.9886	1071.8755	-1270.2997	1736.1506	1096.7063	-1244.6826	1593.7325	1106.6044	988.89032	1664.2787	1162.3866	955.96088	1702.3165	1181.2582	922.74048	1661.9609	1214.9473	939.84949	1659.3604	1159.9965	999.2041	1668.5859	-1579.5593	1058.8945	1670.147	-1518.653	1025.0797	1708.0236	-1551.1677	1059.3062	1672.2017	-1585.6747	-187.88356	1141.6262	506.34821	-185.50179	1144.1769	427.4426	-186.96594	1179.6614	475.26898	-224.22401	1141.4104	473.44327	-139.2773	1144.0448	475.04651																																														-1069.011	209.61534	-1624.9165	-1074.6514	248.19913	-1624.2257	-1321.7103	231.51425	1025.0787	-1320.3632	270.24658	1029.4366	848.13245	183.86507	1196.3165	851.66736	222.64966	1194.2526	1088.7886	202.48114	-1428.168	1082.901	240.81892	-1432.236	-1171.907	1686.9474	-1581.9087	-1170.6406	1647.968	-1581.8293	-1271.0452	1699.1423	1098.0198	-1271.8304	1660.1747	1099.4028	953.74078	1704.8809	1182.5305	973.2157	1731.844	1162.1658	1026.5701	1669.3015	-1551.6357	1028.0698	1630.3331	-1552.1068	-186.90938	1142.6694	474.07495	-186.84979	1103.6898	472.8168
836	6.9583333	-1038.2573	214.42503	-1644.2524	-1109.3168	203.45084	-1599.5507	-1063.6702	172.67581	-1625.478	-1053.9994	262.01276	-1635.0033	-1352.9097	234.89262	1003.8582	-1281.3309	227.03308	1052.4087	-1323.0647	194.07623	1020.8181	-1284.6387	287.806	1052.8081	813.90192	187.63371	1209.6777	892.52545	178.29297	1179.4098	844.60486	145.11414	1198.3927	860.51465	292.39145	1167.3232	1115.749	209.43881	-1401.6038	1056.2113	194.03554	-1460.2371	1095.0223	162.23096	-1423.92	1069.9062	238.58394	-1425.9268	-1204.4622	1685.9515	-1563.3424	-1129.113	1688.2095	-1606.0793	-1173.1516	1724.3248	-1581.9329	-1133.5443	1581.0299	-1603.54	-1239.7158	1699.2794	1119.3497	-1309.3737	1698.7935	1071.8009	-1270.3433	1736.1993	1096.7235	-1244.6163	1594.0942	1106.5188	988.89392	1664.2916	1162.3799	955.95612	1702.4308	1181.2618	922.16345	1662.239	1214.9249	939.82001	1659.3101	1160.0363	999.21326	1668.5776	-1579.5643	1058.8987	1670.1378	-1518.6621	1025.0771	1708.0046	-1551.1647	1059.3163	1672.1127	-1585.47	-187.89064	1141.6224	506.3519	-185.49425	1144.1783	427.44626	-186.97719	1179.6537	475.27185	-224.22165	1141.4044	473.41415	-139.24385	1144.0745	475.06396																																														-1069.0205	209.67406	-1624.9	-1074.6016	248.26794	-1624.2971	-1321.7775	231.47421	1024.9746	-1320.4442	270.21289	1029.28	848.40082	183.53511	1196.3965	852.23022	222.29436	1194.3826	1088.7861	202.46315	-1428.1569	1082.8445	240.7959	-1432.1938	-1171.9468	1686.9259	-1581.7845	-1170.6912	1647.9465	-1581.6301	-1270.9673	1699.0613	1098.0172	-1271.6221	1660.0905	1099.3746	953.50171	1705.2727	1182.6688	973.1369	1732.2358	1162.4585	1026.5769	1669.2928	-1551.6428	1028.0865	1630.3251	-1552.1241	-186.91039	1142.6678	474.07578	-186.83998	1103.6882	472.81522
